HIERARCHY
ROOT Hips
{
  OFFSET 0 0 0
  CHANNELS 6 Xposition Yposition Zposition Zrotation Xrotation Yrotation
  JOINT Spine
  {
    OFFSET 0 8.08348 0
    CHANNELS 3 Zrotation Xrotation Yrotation
    JOINT Spine1
    {
      OFFSET 0 24.6145 0
      CHANNELS 3 Zrotation Xrotation Yrotation
      JOINT Neck
      {
        OFFSET 0 24.5134 2.22849
        CHANNELS 3 Zrotation Xrotation Yrotation
        JOINT Head
        {
          OFFSET 0 13.8011 -1.97158
          CHANNELS 3 Zrotation Xrotation Yrotation
          End Site
          {
            OFFSET 0 19.7158 0
          }
        }
      }
      JOINT LeftShoulder
      {
        OFFSET 3.94856 23.7669 -0.001842
        CHANNELS 3 Zrotation Xrotation Yrotation
        JOINT LeftArm
        {
          OFFSET 8.44442 0 0
          CHANNELS 3 Zrotation Xrotation Yrotation
          JOINT LeftForeArm
          {
            OFFSET 36.6799 0 0
            CHANNELS 3 Zrotation Xrotation Yrotation
            JOINT LeftHand
            {
              OFFSET 28.1618 0 0
              CHANNELS 3 Zrotation Xrotation Yrotation
              End Site
              {
                OFFSET 14.7869 0 0
              }
            }
          }
        }
      }
      JOINT RightShoulder
      {
        OFFSET -3.93736 23.7669 -0.001842
        CHANNELS 3 Zrotation Xrotation Yrotation
        JOINT RightArm
        {
          OFFSET -8.44442 0 0
          CHANNELS 3 Zrotation Xrotation Yrotation
          JOINT RightForeArm
          {
            OFFSET -36.6799 0 0
            CHANNELS 3 Zrotation Xrotation Yrotation
            JOINT RightHand
            {
              OFFSET -28.1618 0 0
              CHANNELS 3 Zrotation Xrotation Yrotation
              End Site
              {
                OFFSET -14.7869 0 0
              }
            }
          }
        }
      }
    }
  }
  JOINT LeftUpLeg
  {
    OFFSET 9.8579 0 0
    CHANNELS 3 Zrotation Xrotation Yrotation
    JOINT LeftLeg
    {
      OFFSET 0 -43.507 0
      CHANNELS 3 Zrotation Xrotation Yrotation
      JOINT LeftFoot
      {
        OFFSET 0 -37.4368 0
        CHANNELS 3 Zrotation Xrotation Yrotation
        JOINT LeftToeBase
        {
          OFFSET 0 -6.40764 14.7869
          CHANNELS 3 Zrotation Xrotation Yrotation
          End Site
          {
            OFFSET 0 0 3.94316
          }
        }
      }
    }
  }
  JOINT RightUpLeg
  {
    OFFSET -9.8579 0 0
    CHANNELS 3 Zrotation Xrotation Yrotation
    JOINT RightLeg
    {
      OFFSET 0 -43.507 0
      CHANNELS 3 Zrotation Xrotation Yrotation
      JOINT RightFoot
      {
        OFFSET 0 -37.4368 0
        CHANNELS 3 Zrotation Xrotation Yrotation
        JOINT RightToeBase
        {
          OFFSET 0 -6.40764 14.7869
          CHANNELS 3 Zrotation Xrotation Yrotation
          End Site
          {
            OFFSET 0 0 3.94316
          }
        }
      }
    }
  }
}
MOTION
Frames:	15
Frame Time:	0.0166667
35.5119 97.3459 -325 1.60266 -1.16595 -4.03633 -0.83275 1.81778 -1.67943 0.894403 0.858329 -0.566477 0.062385 11.2856 -0.594481 2.38888 -7.08157 -0.136682 17.9932 -2.03136 2.42353 -22.8157 -7.17981 3.34245 1.64005 -0.975606 -0.848929 -0.191603 -0.959967 -2.08328 -10.3715 3.79945 -0.975403 14.6925 -5.9377 -8.7554 -0.379759 -1.25467 4.70533 1.42759 -1.20413 2.80701 2.24342 11.2237 1.32107 -4.35285 -3.08889 -0.992279 2.46835 -3.95217 14.7661 9.93923e-017 3.97569e-016 3.18055e-015 -5.37717 9.25424 5.77006 4.52352 0.719777 10.213 -1.97632 -6.79003 -31.3226 -0 0 6.36111e-015 
35.5119 97.3459 -325 1.61104 -1.17889 -4.02352 -0.833552 1.80235 -1.66832 0.887716 0.887868 -0.566482 0.084949 11.2642 -0.598676 2.32673 -7.11931 -0.153856 17.993 -2.02126 2.4297 -22.7654 -7.32688 3.39618 1.64893 -0.834311 -1.03326 -0.26097 -0.814964 -1.97897 -10.3656 3.79945 -0.975403 14.6793 -5.95449 -8.76703 -0.380432 -1.25968 4.70534 1.18827 -1.21469 2.83681 2.2275 11.2405 1.3051 -4.35613 -3.08882 -1.05301 2.75692 -3.94221 14.9408 6.95746e-016 -3.97569e-016 -3.18055e-015 -5.38899 9.25814 5.77013 4.53427 0.748535 10.2212 -2.03139 -6.79955 -31.3626 1.98785e-016 3.97569e-016 -3.18055e-015 
35.5119 97.3459 -325 1.61712 -1.20072 -3.99857 -0.834178 1.78517 -1.66427 0.884487 0.939102 -0.56649 -0.084563 11.0941 -0.550819 2.66792 -6.93309 -0.030788 17.9926 -2.03995 2.39515 -22.7382 -7.27141 3.41739 1.67976 -0.847329 -1.04577 -0.108143 -0.830139 -2.00314 -10.3586 3.79945 -0.975403 14.6657 -5.92954 -8.7559 -0.392297 -1.28657 4.70539 1.24923 -1.23942 2.84748 2.2698 11.2776 1.32303 -4.35649 -3.06787 -1.06707 1.17649 -4.66109 15.1049 1.98785e-016 -3.97569e-016 -1.59028e-015 -5.39213 9.27782 5.76245 4.51964 0.772581 10.2697 -2.01634 -6.84672 -31.4175 1.98785e-016 0 -1.27222e-014 
35.5119 97.3459 -325 1.61455 -1.23574 -3.96534 -0.833647 1.79998 -1.66749 0.871844 0.957669 -0.566742 0.079241 11.268 -0.59453 2.31123 -7.23951 -0.150132 18.0016 -2.03904 2.39719 -22.734 -7.04499 3.31044 1.73455 -0.940869 -0.84577 0.092858 -0.929815 -2.14731 -10.3482 3.79945 -0.975403 14.6697 -5.87352 -8.75373 -0.408345 -1.32977 4.6963 1.33879 -1.27986 2.84256 2.27632 11.2921 1.33528 -4.36122 -3.02847 -1.17028 1.73383 -4.3496 14.97 2.98177e-016 -3.97569e-016 -3.18055e-015 -5.39464 9.31302 5.73896 4.51836 0.786469 10.2929 -2.00394 -6.87007 -31.4258 9.93923e-017 3.97569e-016 3.18055e-015 
35.5178 97.3453 -325.006 1.61854 -1.2519 -3.93154 -0.833401 1.80498 -1.67067 0.851199 0.954867 -0.566986 0.058596 11.2987 -0.616529 2.36876 -7.25738 -0.159917 18.0084 -2.03048 2.38949 -22.7139 -7.01415 3.28684 1.74851 -0.959924 -0.863073 -0.032174 -0.946141 -2.12894 -10.3484 3.80105 -0.975405 14.9824 -4.14595 -8.85442 -0.564879 -2.1802 4.98139 1.3822 -2.12329 2.6866 2.21662 11.2488 1.49767 -4.36583 -2.96746 -1.30052 2.75863 -4.01997 14.9189 2.98177e-016 -3.97569e-016 -1.59028e-015 -5.3964 9.32931 5.72047 4.52352 0.783389 10.2102 -2.00693 -6.872 -31.3711 -3.97569e-016 3.97569e-016 3.18055e-015 
35.5217 97.3447 -325.013 1.62438 -1.2511 -3.90401 -0.839153 1.79016 -1.66637 0.871347 0.952314 -0.567228 -0.121641 11.1615 -0.628169 2.76469 -6.94582 -0.089874 18.0277 -2.07243 2.39749 -22.7378 -6.98251 3.26606 1.75025 -0.962612 -0.893399 -0.091409 -0.947288 -2.10575 -10.3664 3.7908 -0.981757 14.9495 -4.42453 -8.83503 -0.553292 -2.01135 4.9415 1.3294 -1.95633 2.68991 2.26747 11.2603 1.49447 -4.36037 -2.95891 -1.29711 1.18393 -4.71059 15.078 -0 0 1.59028e-015 -5.39607 9.3274 5.70448 4.52381 0.789978 10.2642 -2.00686 -6.87625 -31.4217 0 3.97569e-016 -0 
35.5248 97.344 -325.02 1.62753 -1.25228 -3.87486 -0.849111 1.78415 -1.65257 0.878682 0.919453 -0.567464 -0.137792 11.2106 -0.669704 2.81366 -6.85349 -0.124623 18.035 -2.06977 2.41037 -22.7427 -7.02793 3.19213 1.72852 -0.966127 -0.908854 -0.063832 -0.95129 -2.09369 -10.3867 3.78202 -0.990849 14.9725 -4.50108 -8.85123 -0.561897 -1.98719 4.96224 1.28328 -1.93272 2.69187 2.26202 11.2586 1.50791 -4.35478 -2.97969 -1.28977 2.07186 -4.13275 14.7363 9.93923e-017 -1.19271e-015 -3.18055e-015 -5.39722 9.32949 5.70563 4.52547 0.793331 10.2646 -2.01825 -6.87356 -31.4598 -9.93923e-017 -3.97569e-016 3.18055e-015 
35.5254 97.3434 -325.03 1.61734 -1.23422 -3.86895 -0.830717 1.75347 -1.64118 0.877766 0.898624 -0.567705 -0.163564 11.1808 -0.70394 2.84732 -6.6059 -0.158256 18.0438 -2.08644 2.40063 -22.7621 -7.03678 3.18519 1.72805 -0.945616 -0.936993 -0.039654 -0.930828 -2.08559 -10.3977 3.76649 -1.01501 14.982 -4.57884 -8.82835 -0.546938 -2.06986 4.99505 1.24718 -2.01653 2.71275 2.27145 11.2548 1.35964 -4.34192 -3.03809 -1.10418 1.17924 -4.65505 14.99 9.93923e-017 -1.19271e-015 1.59028e-015 -5.37666 9.29469 5.67126 4.52415 0.813767 10.2518 -1.99292 -6.8768 -31.4322 -1.98785e-016 7.95139e-016 -3.18055e-015 
35.5285 97.3428 -325.043 1.61509 -1.21517 -3.86112 -0.841673 1.72212 -1.63463 0.923441 0.877066 -0.567951 -0.192358 11.1675 -0.764308 2.85083 -6.35925 -0.224875 18.0036 -2.07222 2.38715 -22.7584 -7.07312 3.16715 1.72288 -0.934986 -0.939347 0.002114 -0.920958 -2.12274 -10.4373 3.74749 -1.0227 14.9987 -4.61012 -8.80769 -0.536003 -2.1089 5.00624 1.24839 -2.05599 2.70664 2.22601 11.2028 1.35959 -4.34289 -3.04461 -1.09127 2.37031 -3.93083 14.8485 -9.93923e-017 -3.97569e-016 -0 -5.3749 9.2666 5.68263 4.52563 0.817878 10.2365 -2.0149 -6.86278 -31.4337 1.98785e-016 3.97569e-016 6.36111e-015 
35.5321 97.3422 -325.054 1.61825 -1.21229 -3.85235 -0.839689 1.69293 -1.63699 0.931772 0.885351 -0.56821 -0.226449 11.1624 -0.776167 2.88756 -6.19231 -0.232466 17.9908 -2.07294 2.38555 -22.7607 -7.09769 3.15468 1.70497 -0.928817 -0.936121 -0.000519001 -0.91494 -2.13421 -10.4438 3.73892 -1.02654 15.0097 -4.58639 -8.77478 -0.543872 -2.06351 5.01288 1.31249 -2.00909 2.67457 2.21164 11.1779 1.37484 -4.32819 -3.01906 -1.18523 2.62071 -3.91053 15.0995 6.95746e-016 -7.95139e-016 1.59028e-015 -5.38259 9.25393 5.67383 4.52664 0.82284 10.2219 -2.00976 -6.8623 -31.4126 -9.93923e-017 0 -3.18055e-015 
35.535 97.3416 -325.067 1.62647 -1.2218 -3.83841 -0.8409 1.67052 -1.64641 0.92454 0.907409 -0.568481 -0.075076 11.3101 -0.836631 2.56636 -6.2939 -0.363252 18.0011 -2.06118 2.40583 -22.7741 -7.16815 3.11296 1.68533 -0.868142 -0.911655 -0.084339 -0.853233 -2.14396 -10.4434 3.72689 -1.00708 15.0723 -4.24521 -8.78246 -0.569932 -2.15001 5.06622 1.38638 -2.09308 2.62557 2.20409 11.2703 0.557441 -4.28512 -3.28006 -0.243863 2.7435 -3.85357 14.725 -4.96962e-016 -3.97569e-016 -3.18055e-015 -5.38791 9.25112 5.63604 4.52199 0.840287 10.229 -1.99411 -6.89376 -31.4146 -9.93923e-017 0 3.18055e-015 
35.5368 97.3412 -325.074 1.62774 -1.25491 -3.8049 -0.822929 1.65878 -1.67101 0.913568 0.958833 -0.568769 -0.217797 11.1838 -0.809917 2.89934 -6.02962 -0.269656 18.0141 -2.06466 2.40401 -22.8103 -7.14798 3.11573 1.67243 -0.850779 -0.91416 -0.070461 -0.836149 -2.10916 -10.4388 3.75379 -1.00522 15.093 -4.17956 -8.76083 -0.56319 -2.16072 5.09651 1.40226 -2.10419 2.574 2.1984 11.2012 1.16165 -4.30693 -3.02755 -0.96249 2.74961 -3.9942 14.8101 -8.94531e-016 -3.97569e-016 1.59028e-015 -5.39959 9.28955 5.59964 4.53604 0.840587 10.3197 -2.02336 -6.89897 -31.4775 -2.98177e-016 0 -0 
35.5379 97.3408 -325.1 1.66901 -1.24862 -3.8108 -0.896481 1.62064 -1.66967 0.954974 1.01058 -0.569375 -0.221381 11.2014 -0.810833 2.91418 -6.05827 -0.26696 18.011 -2.0334 2.39165 -22.8234 -7.16749 3.21228 1.6441 -0.856089 -1.10088 -0.100445 -0.838558 -2.04256 -10.431 3.75711 -0.992102 15.0978 -4.16253 -8.75679 -0.554039 -2.14762 5.1117 1.43402 -2.09078 2.56832 2.18211 11.176 1.14474 -4.33833 -3.03372 -0.94465 2.37542 -3.93707 14.8489 2.98177e-016 3.97569e-016 -0 -5.43835 9.25648 5.64697 4.54161 0.858954 10.3387 -2.07065 -6.91092 -31.5254 -9.93923e-017 0 -6.36111e-015 
35.5382 97.3405 -325.118 1.67847 -1.27687 -3.79615 -0.911916 1.62062 -1.68101 0.968831 1.05858 -0.575063 -0.20787 11.234 -0.807468 2.92352 -6.15187 -0.259911 18.0002 -2.03001 2.3887 -22.8685 -6.99412 3.14158 1.69891 -0.986293 -0.92446 -0.279617 -0.967356 -2.1528 -10.4105 3.75323 -1.00568 15.0871 -4.16718 -8.72955 -0.546105 -2.10538 5.09716 1.41416 -2.04945 2.56658 2.20858 11.1762 1.13475 -4.30517 -2.94445 -0.982132 1.16907 -4.71508 15.0173 0 3.97569e-016 -0 -5.45073 9.24657 5.622 4.55078 0.918273 10.3473 -2.07932 -6.96898 -31.536 9.93923e-017 0 9.54166e-015 
35.5351 97.3402 -325.139 1.67515 -1.31263 -3.78588 -0.905756 1.64241 -1.7018 0.960061 1.07913 -0.580789 -0.204964 11.2742 -0.778992 2.95985 -6.24251 -0.221295 17.9895 -2.03554 2.38041 -22.8831 -6.88879 3.18593 1.68866 -0.993224 -0.924171 -0.270361 -0.974862 -2.04303 -10.4058 3.75032 -0.975192 15.107 -4.19148 -8.73491 -0.561245 -2.03398 5.061 1.48439 -1.97569 2.58922 2.20482 11.177 1.10139 -4.28361 -2.90728 -0.922201 2.07744 -4.44041 14.7563 -5.96354e-016 0 -0 -5.44965 9.26989 5.601 4.5592 0.92018 10.3413 -2.07994 -6.98245 -31.5224 -9.93923e-017 0 3.18055e-015 
